<svg xmlns="http://www.w3.org/2000/svg" width="76.81" height="76.81" viewBox="0 0 76.81 76.81"><title>ui_sample</title><circle cx="38.405" cy="38.405" r="38.405" style="fill:none"/><path d="M59.944,29.227a7.825,7.825,0,0,1-14.952,0,7.825,7.825,0,0,1,14.952,0Zm-4.325,0a3.151,3.151,0,1,0-3.151,3.151A3.151,3.151,0,0,0,55.619,29.227Z" style="fill:#fff"/><path d="M31.818,29.227a7.825,7.825,0,0,1-14.952,0,7.825,7.825,0,0,1,14.952,0Zm-4.325,0a3.151,3.151,0,1,0-3.151,3.151A3.151,3.151,0,0,0,27.493,29.227Z" style="fill:#fff"/><path d="M38.405,42.345a13.623,13.623,0,0,1-5.979-1.388,7.225,7.225,0,0,0,11.958,0A13.623,13.623,0,0,1,38.405,42.345Z" style="fill:#fff"/><path d="M38.272,50.027a55.849,55.849,0,0,0-16.911,2.611,20.649,20.649,0,0,0,33.823,0A55.856,55.856,0,0,0,38.272,50.027Z" style="fill:#fff"/></svg>